<svg width="100%" height="100%" style="overflow:visible;" preserveAspectRatio="none" viewBox="0 0 63 27" fill="none" xmlns="http://www.w3.org/2000/svg"><g clip-path="url(#clip0_41_767)"><path d="M14.1098 21.0309H1.42578V1.01086H5.96178V17.4749H14.1098V21.0309ZM30.1482 13.7789C30.1482 18.3989 26.8162 21.3389 22.4202 21.3389C18.0522 21.3389 14.7202 18.4269 14.7202 13.8629V13.6389C14.7202 9.0469 18.0522 6.0509 22.4482 6.0509C26.8442 6.0509 30.1482 8.9909 30.1482 13.5549V13.7789ZM18.8642 13.7789C18.8642 16.5789 20.1522 18.2589 22.4482 18.2589C24.7162 18.2589 26.0322 16.5789 26.0322 13.8069V13.6109C26.0322 10.8109 24.7162 9.1309 22.4482 9.1309C20.2082 9.1309 18.8642 10.7549 18.8642 13.5549V13.7789ZM38.5263 26.4349C43.3423 26.4349 46.2263 24.2229 46.2543 19.8829V6.3869H42.2223V8.5709C41.3823 7.0869 39.9543 6.0509 37.5743 6.0509C33.9343 6.0509 31.1343 8.9909 31.1343 13.1909V13.3869C31.1343 17.7269 33.9623 20.3869 37.5183 20.3869C39.6743 20.3869 41.4103 19.0989 42.2223 17.6709V19.8829C42.2223 22.1789 40.9903 23.4669 38.5263 23.4669C36.4543 23.4669 35.5303 22.6269 35.2783 21.3389H31.2463C31.6383 24.3629 33.7943 26.4349 38.5263 26.4349ZM38.7223 17.3349C36.7063 17.3349 35.2783 15.8229 35.2783 13.3869V13.1629C35.2783 10.7549 36.5383 9.1309 38.8063 9.1309C41.0183 9.1309 42.3343 10.6429 42.3343 13.1349V13.3309C42.3343 15.8229 40.8503 17.3349 38.7223 17.3349ZM63.523 13.7789C63.523 18.3989 60.191 21.3389 55.795 21.3389C51.427 21.3389 48.095 18.4269 48.095 13.8629V13.6389C48.095 9.0469 51.427 6.0509 55.823 6.0509C60.219 6.0509 63.523 8.9909 63.523 13.5549V13.7789ZM52.239 13.7789C52.239 16.5789 53.527 18.2589 55.823 18.2589C58.091 18.2589 59.407 16.5789 59.407 13.8069V13.6109C59.407 10.8109 58.091 9.1309 55.823 9.1309C53.583 9.1309 52.239 10.7549 52.239 13.5549V13.7789Z" fill="black"/><path fill-rule="evenodd" clip-rule="evenodd" d="M14.1098 21.0309H1.42578V1.01086H5.96178V17.4749H14.1098V21.0309ZM30.1482 13.7789C30.1482 18.3989 26.8162 21.3389 22.4202 21.3389C18.0522 21.3389 14.7202 18.4269 14.7202 13.8629V13.6389C14.7202 9.0469 18.0522 6.0509 22.4482 6.0509C26.8442 6.0509 30.1482 8.9909 30.1482 13.5549V13.7789ZM18.8642 13.7789C18.8642 16.5789 20.1522 18.2589 22.4482 18.2589C24.7162 18.2589 26.0322 16.5789 26.0322 13.8069V13.6109C26.0322 10.8109 24.7162 9.1309 22.4482 9.1309C20.2082 9.1309 18.8642 10.7549 18.8642 13.5549V13.7789ZM38.5263 26.4349C43.3423 26.4349 46.2263 24.2229 46.2543 19.8829V6.3869H42.2223V8.5709C41.3823 7.0869 39.9543 6.0509 37.5743 6.0509C33.9343 6.0509 31.1343 8.9909 31.1343 13.1909V13.3869C31.1343 17.7269 33.9623 20.3869 37.5183 20.3869C39.6743 20.3869 41.4103 19.0989 42.2223 17.6709V19.8829C42.2223 22.1789 40.9903 23.4669 38.5263 23.4669C36.4543 23.4669 35.5303 22.6269 35.2783 21.3389H31.2463C31.6383 24.3629 33.7943 26.4349 38.5263 26.4349ZM38.7223 17.3349C36.7063 17.3349 35.2783 15.8229 35.2783 13.3869V13.1629C35.2783 10.7549 36.5383 9.1309 38.8063 9.1309C41.0183 9.1309 42.3343 10.6429 42.3343 13.1349V13.3309C42.3343 15.8229 40.8503 17.3349 38.7223 17.3349ZM63.523 13.7789C63.523 18.3989 60.191 21.3389 55.795 21.3389C51.427 21.3389 48.095 18.4269 48.095 13.8629V13.6389C48.095 9.0469 51.427 6.0509 55.823 6.0509C60.219 6.0509 63.523 8.9909 63.523 13.5549V13.7789ZM52.239 13.7789C52.239 16.5789 53.527 18.2589 55.823 18.2589C58.091 18.2589 59.407 16.5789 59.407 13.8069V13.6109C59.407 10.8109 58.091 9.1309 55.823 9.1309C53.583 9.1309 52.239 10.7549 52.239 13.5549V13.7789Z" fill="black"/><path fill-rule="evenodd" clip-rule="evenodd" d="M14.1098 21.0309H1.42578V1.01086H5.96178V17.4749H14.1098V21.0309ZM30.1482 13.7789C30.1482 18.3989 26.8162 21.3389 22.4202 21.3389C18.0522 21.3389 14.7202 18.4269 14.7202 13.8629V13.6389C14.7202 9.0469 18.0522 6.0509 22.4482 6.0509C26.8442 6.0509 30.1482 8.9909 30.1482 13.5549V13.7789ZM18.8642 13.7789C18.8642 16.5789 20.1522 18.2589 22.4482 18.2589C24.7162 18.2589 26.0322 16.5789 26.0322 13.8069V13.6109C26.0322 10.8109 24.7162 9.1309 22.4482 9.1309C20.2082 9.1309 18.8642 10.7549 18.8642 13.5549V13.7789ZM38.5263 26.4349C43.3423 26.4349 46.2263 24.2229 46.2543 19.8829V6.3869H42.2223V8.5709C41.3823 7.0869 39.9543 6.0509 37.5743 6.0509C33.9343 6.0509 31.1343 8.9909 31.1343 13.1909V13.3869C31.1343 17.7269 33.9623 20.3869 37.5183 20.3869C39.6743 20.3869 41.4103 19.0989 42.2223 17.6709V19.8829C42.2223 22.1789 40.9903 23.4669 38.5263 23.4669C36.4543 23.4669 35.5303 22.6269 35.2783 21.3389H31.2463C31.6383 24.3629 33.7943 26.4349 38.5263 26.4349ZM38.7223 17.3349C36.7063 17.3349 35.2783 15.8229 35.2783 13.3869V13.1629C35.2783 10.7549 36.5383 9.1309 38.8063 9.1309C41.0183 9.1309 42.3343 10.6429 42.3343 13.1349V13.3309C42.3343 15.8229 40.8503 17.3349 38.7223 17.3349ZM63.523 13.7789C63.523 18.3989 60.191 21.3389 55.795 21.3389C51.427 21.3389 48.095 18.4269 48.095 13.8629V13.6389C48.095 9.0469 51.427 6.0509 55.823 6.0509C60.219 6.0509 63.523 8.9909 63.523 13.5549V13.7789ZM52.239 13.7789C52.239 16.5789 53.527 18.2589 55.823 18.2589C58.091 18.2589 59.407 16.5789 59.407 13.8069V13.6109C59.407 10.8109 58.091 9.1309 55.823 9.1309C53.583 9.1309 52.239 10.7549 52.239 13.5549V13.7789Z" fill="black"/><path fill-rule="evenodd" clip-rule="evenodd" d="M14.1098 21.0309H1.42578V1.01086H5.96178V17.4749H14.1098V21.0309ZM30.1482 13.7789C30.1482 18.3989 26.8162 21.3389 22.4202 21.3389C18.0522 21.3389 14.7202 18.4269 14.7202 13.8629V13.6389C14.7202 9.0469 18.0522 6.0509 22.4482 6.0509C26.8442 6.0509 30.1482 8.9909 30.1482 13.5549V13.7789ZM18.8642 13.7789C18.8642 16.5789 20.1522 18.2589 22.4482 18.2589C24.7162 18.2589 26.0322 16.5789 26.0322 13.8069V13.6109C26.0322 10.8109 24.7162 9.1309 22.4482 9.1309C20.2082 9.1309 18.8642 10.7549 18.8642 13.5549V13.7789ZM38.5263 26.4349C43.3423 26.4349 46.2263 24.2229 46.2543 19.8829V6.3869H42.2223V8.5709C41.3823 7.0869 39.9543 6.0509 37.5743 6.0509C33.9343 6.0509 31.1343 8.9909 31.1343 13.1909V13.3869C31.1343 17.7269 33.9623 20.3869 37.5183 20.3869C39.6743 20.3869 41.4103 19.0989 42.2223 17.6709V19.8829C42.2223 22.1789 40.9903 23.4669 38.5263 23.4669C36.4543 23.4669 35.5303 22.6269 35.2783 21.3389H31.2463C31.6383 24.3629 33.7943 26.4349 38.5263 26.4349ZM38.7223 17.3349C36.7063 17.3349 35.2783 15.8229 35.2783 13.3869V13.1629C35.2783 10.7549 36.5383 9.1309 38.8063 9.1309C41.0183 9.1309 42.3343 10.6429 42.3343 13.1349V13.3309C42.3343 15.8229 40.8503 17.3349 38.7223 17.3349ZM63.523 13.7789C63.523 18.3989 60.191 21.3389 55.795 21.3389C51.427 21.3389 48.095 18.4269 48.095 13.8629V13.6389C48.095 9.0469 51.427 6.0509 55.823 6.0509C60.219 6.0509 63.523 8.9909 63.523 13.5549V13.7789ZM52.239 13.7789C52.239 16.5789 53.527 18.2589 55.823 18.2589C58.091 18.2589 59.407 16.5789 59.407 13.8069V13.6109C59.407 10.8109 58.091 9.1309 55.823 9.1309C53.583 9.1309 52.239 10.7549 52.239 13.5549V13.7789Z" fill="black"/></g><defs><clipPath id="clip0_41_767"><rect width="63" height="27" fill="white" transform="translate(0.861328 0.0308838)"/></clipPath></defs></svg>