<svg width="100%" height="100%" style="overflow:visible;" preserveAspectRatio="none" viewBox="0 0 24 24" fill="none" xmlns="http://www.w3.org/2000/svg"><path d="M22.4547 7.23389C22.3408 6.81129 22.1182 6.4259 21.809 6.11606C21.4999 5.80622 21.115 5.58275 20.6927 5.46789C19.1267 5.03789 12.8617 5.03089 12.8617 5.03089C12.8617 5.03089 6.59766 5.02389 5.03066 5.43489C4.60858 5.55504 4.22448 5.78167 3.91522 6.09303C3.60597 6.40438 3.38194 6.79001 3.26466 7.21289C2.85166 8.77889 2.84766 12.0269 2.84766 12.0269C2.84766 12.0269 2.84366 15.2909 3.25366 16.8409C3.48366 17.6979 4.15866 18.3749 5.01666 18.6059C6.59866 19.0359 12.8467 19.0429 12.8467 19.0429C12.8467 19.0429 19.1117 19.0499 20.6777 18.6399C21.1002 18.5252 21.4854 18.3023 21.7953 17.9931C22.1052 17.6839 22.329 17.2991 22.4447 16.8769C22.8587 15.3119 22.8617 12.0649 22.8617 12.0649C22.8617 12.0649 22.8817 8.79989 22.4547 7.23389ZM10.8577 15.0359L10.8627 9.03589L16.0697 12.0409L10.8577 15.0359Z" fill="black"/></svg>