<svg width="100%" height="100%" style="overflow:visible;" preserveAspectRatio="none" viewBox="0 0 24 24" fill="none" xmlns="http://www.w3.org/2000/svg"><path fill-rule="evenodd" clip-rule="evenodd" d="M5.36133 3.27356C4.5329 3.27356 3.86133 3.94513 3.86133 4.77356V19.7736C3.86133 20.602 4.5329 21.2736 5.36133 21.2736H20.3613C21.1897 21.2736 21.8613 20.602 21.8613 19.7736V4.77356C21.8613 3.94513 21.1897 3.27356 20.3613 3.27356H5.36133ZM9.38209 7.27628C9.38772 8.23253 8.67194 8.82175 7.82256 8.81753C7.0224 8.81331 6.3249 8.17628 6.32912 7.27769C6.33334 6.43253 7.00131 5.75331 7.86897 5.773C8.74928 5.79269 9.38772 6.43816 9.38209 7.27628ZM13.141 10.0353H10.621H10.6196V18.5952H13.283V18.3955C13.283 18.0156 13.2827 17.6356 13.2824 17.2555C13.2816 16.2417 13.2807 15.2268 13.2859 14.2133C13.2873 13.9672 13.2985 13.7113 13.3618 13.4764C13.5994 12.5989 14.3884 12.0322 15.2687 12.1715C15.834 12.26 16.208 12.5877 16.3655 13.1207C16.4626 13.4539 16.5062 13.8125 16.5104 14.1599C16.5218 15.2075 16.5202 16.2551 16.5186 17.3028C16.518 17.6726 16.5174 18.0426 16.5174 18.4124V18.5938H19.1893V18.3885C19.1893 17.9365 19.1891 17.4846 19.1888 17.0327C19.1883 15.9032 19.1877 14.7737 19.1907 13.6438C19.1921 13.1333 19.1373 12.6299 19.0121 12.1363C18.8251 11.4022 18.4384 10.7947 17.8098 10.356C17.364 10.0437 16.8746 9.84266 16.3276 9.82016C16.2653 9.81757 16.2025 9.81418 16.1394 9.81077C15.8597 9.79565 15.5754 9.78029 15.308 9.83422C14.543 9.9875 13.8709 10.3377 13.3632 10.955C13.3042 11.0258 13.2465 11.0977 13.1604 11.205L13.141 11.2293V10.0353ZM6.54297 18.598H9.19375V10.0409H6.54297V18.598Z" fill="black"/></svg>