<svg width="100%" height="100%" style="overflow:visible;" preserveAspectRatio="none" viewBox="0 0 24 24" fill="none" xmlns="http://www.w3.org/2000/svg"><path fill-rule="evenodd" clip-rule="evenodd" d="M16.8613 3.27356H8.86133C6.09991 3.27356 3.86133 5.51214 3.86133 8.27356V16.2736C3.86133 19.035 6.09991 21.2736 8.86133 21.2736H16.8613C19.6227 21.2736 21.8613 19.035 21.8613 16.2736V8.27356C21.8613 5.51214 19.6227 3.27356 16.8613 3.27356ZM20.1113 16.2736C20.1058 18.0662 18.6539 19.5181 16.8613 19.5236H8.86133C7.06868 19.5181 5.61682 18.0662 5.61133 16.2736V8.27356C5.61682 6.48091 7.06868 5.02905 8.86133 5.02356H16.8613C18.6539 5.02905 20.1058 6.48091 20.1113 8.27356V16.2736ZM17.6113 8.52356C18.1636 8.52356 18.6113 8.07584 18.6113 7.52356C18.6113 6.97128 18.1636 6.52356 17.6113 6.52356C17.059 6.52356 16.6113 6.97128 16.6113 7.52356C16.6113 8.07584 17.059 8.52356 17.6113 8.52356ZM12.8613 7.77356C10.376 7.77356 8.36133 9.78828 8.36133 12.2736C8.36133 14.7589 10.376 16.7736 12.8613 16.7736C15.3466 16.7736 17.3613 14.7589 17.3613 12.2736C17.364 11.0793 16.8907 9.93313 16.0462 9.08864C15.2017 8.24415 14.0556 7.7709 12.8613 7.77356ZM10.1113 12.2736C10.1113 13.7924 11.3425 15.0236 12.8613 15.0236C14.3801 15.0236 15.6113 13.7924 15.6113 12.2736C15.6113 10.7548 14.3801 9.52356 12.8613 9.52356C11.3425 9.52356 10.1113 10.7548 10.1113 12.2736Z" fill="black"/></svg>